<svg width="32" height="32" viewBox="0 0 32 32" fill="none" xmlns="http://www.w3.org/2000/svg">
<g clip-path="url(#clip0_96_42)">
<path d="M24.0384 21.4834C20.9882 21.4834 18.5066 19.0004 18.5066 15.9482C18.5066 12.896 20.9882 10.4131 24.0384 10.4131C27.089 10.4131 29.5706 12.8963 29.5706 15.9482C29.5706 19.0001 27.089 21.4834 24.0384 21.4834ZM24.0384 12.4235C22.0967 12.4235 20.5171 14.0048 20.5171 15.9482C20.5171 17.8917 22.0967 19.4729 24.0384 19.4729C25.9802 19.4729 27.5601 17.8917 27.5601 15.9482C27.5601 14.0048 25.9802 12.4235 24.0384 12.4235Z" fill="white"/>
<path d="M10.3842 19.068C6.78146 19.068 3.8502 16.1368 3.8502 12.534C3.8502 8.93125 6.78146 6 10.3842 6C13.987 6 16.9182 8.93125 16.9182 12.534C16.9182 16.1368 13.987 19.068 10.3842 19.068ZM10.3842 8.01046C7.88989 8.01046 5.86067 10.0397 5.86067 12.534C5.86067 15.0283 7.88989 17.0575 10.3842 17.0575C12.8785 17.0575 14.9078 15.0283 14.9078 12.534C14.9078 10.0397 12.8782 8.01046 10.3842 8.01046Z" fill="white"/>
<path d="M8.15494 21.8721H14.8756C16.7949 21.8721 18.5591 22.5452 19.9476 23.6661C20.0586 23.6242 20.1772 23.5984 20.3025 23.5984H25.4205C29.051 23.5984 32.0044 26.5518 32.0044 30.1823V30.9949C32.0044 31.5501 31.5544 32.0001 30.9992 32.0001H18.9143H1.07007C0.514848 32.0001 0.0648391 31.5501 0.0648391 30.9949V29.9625C0.064504 25.5016 3.69406 21.8721 8.15494 21.8721ZM22.966 29.9625V29.9896H29.9899C29.8887 27.5567 27.8776 25.6088 25.4205 25.6088H21.689C22.4959 26.8667 22.966 28.3605 22.966 29.9625ZM2.07497 29.9896H18.9143H20.9556V29.9625C20.9556 26.6101 18.228 23.8825 14.8756 23.8825H8.15494C4.80249 23.8825 2.07497 26.6101 2.07497 29.9625V29.9896Z" fill="white"/>
<path d="M27.1531 3.14141H24.8584V0.847019C24.8584 0.847019 24.8795 -0.008738 24.0348 6.74913e-05C23.1901 0.00887298 23.1414 0.847019 23.1414 0.847019V3.14141H20.8469C20.8469 3.14141 20.0039 3.14534 20 3.98836C19.996 4.83146 20.8469 4.85848 20.8469 4.85848H23.1414V7.15303C23.1414 7.15303 23.1453 7.99605 23.9883 7.99999C24.8315 8.00392 24.8584 7.15303 24.8584 7.15303V4.85848H27.1531C27.1531 4.85848 28.0088 4.87942 27.9999 4.03469C27.9911 3.19005 27.1531 3.14141 27.1531 3.14141Z" fill="white"/>
</g>
<defs>
<clipPath id="clip0_96_42">
<rect width="32" height="32" fill="white"/>
</clipPath>
</defs>
</svg>
