<svg width="16" height="16" viewBox="0 0 16 16" fill="none" xmlns="http://www.w3.org/2000/svg">
<rect width="16" height="16" rx="8" fill="#074A4E"/>
<path d="M2.8734 10.2171C2.83455 10.2272 2.79354 10.2261 2.75531 10.2139C2.71708 10.2017 2.68326 10.1789 2.65792 10.1482C2.63258 10.1175 2.61679 10.0803 2.61248 10.041C2.60816 10.0017 2.61548 9.96201 2.63357 9.92672L3.55421 8.13091C3.57561 8.08939 3.58687 8.04353 3.58709 7.99698C3.58731 7.95043 3.57649 7.90447 3.55549 7.86275C3.06316 6.89653 2.95758 5.78388 3.25961 4.74482C3.90583 2.50815 6.29605 1.16027 8.58749 1.73871L8.63026 1.74997C9.27334 1.90917 9.8636 2.22917 10.3437 2.67888C10.3919 2.72379 10.4539 2.75167 10.52 2.75814C10.5861 2.7646 10.6524 2.74929 10.7087 2.7146L10.7138 2.71137C10.7517 2.6878 10.7838 2.65615 10.8076 2.61877C10.8315 2.58138 10.8464 2.53922 10.8515 2.49538C10.8565 2.45155 10.8515 2.40716 10.8367 2.36549C10.822 2.32383 10.7979 2.28595 10.7663 2.25465C10.6694 2.15833 10.5673 2.06719 10.4605 1.98161C10.1773 1.75425 9.86335 1.56673 9.52762 1.42443C8.80767 1.10913 8.02195 0.966007 7.23488 1.0068C6.4478 1.0476 5.68176 1.27115 4.99953 1.65913C3.85551 2.30448 3.02839 3.34104 2.67004 4.57977C2.34704 5.69159 2.43305 6.87976 2.91295 7.93542C2.92104 7.95304 2.92503 7.97222 2.92463 7.99155C2.92422 8.01087 2.91942 8.02987 2.91059 8.04714L2.08694 9.65607C2.03248 9.76317 2.00285 9.88081 2.0002 10.0005C1.99754 10.1202 2.02191 10.239 2.07156 10.3483C2.12122 10.4577 2.19491 10.5548 2.28735 10.6328C2.37978 10.7108 2.48865 10.7676 2.60612 10.7993C2.74468 10.8353 2.8904 10.835 3.02881 10.7985L5.04632 10.2678C5.23381 10.2185 5.33697 10.03 5.26392 9.8531C5.23511 9.78322 5.18122 9.72615 5.11246 9.69273C5.0437 9.65931 4.96485 9.65186 4.89087 9.67178L2.8734 10.2171Z" fill="#FACF5A"/>
<path d="M11.141 13.7762C11.2378 13.8716 11.3585 13.9402 11.4908 13.9751C11.6032 14.0041 11.7208 14.0076 11.8349 13.9865C11.949 13.9655 12.057 13.9198 12.151 13.8527C12.245 13.7857 12.3227 13.699 12.3784 13.5989C12.4342 13.4988 12.4667 13.3877 12.4735 13.2738L12.5695 11.6299C12.5707 11.6097 12.5765 11.5899 12.5865 11.5721C12.5964 11.5543 12.6102 11.5389 12.6269 11.5269C13.2015 11.1135 13.6706 10.5772 14 9.96048H13.2941C12.9911 10.4308 12.5882 10.8372 12.1075 11.1492C12.0678 11.1751 12.0347 11.2097 12.0109 11.2503C11.9872 11.2909 11.9734 11.3364 11.9707 11.3831L11.8622 13.2404C11.8603 13.2725 11.8491 13.3034 11.8298 13.3294C11.8105 13.3554 11.784 13.3753 11.7535 13.3868C11.723 13.3984 11.6897 13.401 11.6577 13.3944C11.6257 13.3878 11.5963 13.3723 11.573 13.3497L10.0867 11.8992C10.0295 11.8434 9.95219 11.812 9.87158 11.8118C9.48563 11.811 9.10135 11.7562 8.73105 11.6493C8.00827 11.4409 7.35973 11.0368 6.85963 10.4831C5.92421 9.44955 5.59608 8.04558 5.98222 6.72737C6.59461 4.6365 8.82901 3.41162 10.9614 3.99613C11.1245 4.04101 11.2846 4.0958 11.4408 4.16019C11.9158 4.35644 12.3359 4.63629 12.689 4.97619H13.5181C13.5132 4.97017 13.5083 4.96417 13.5034 4.95817C12.9751 4.31343 12.2788 3.82153 11.4888 3.53478C10.6987 3.24803 9.84431 3.17716 9.01653 3.32972C8.18875 3.48227 7.41851 3.85254 6.78776 4.40114C6.157 4.94973 5.68931 5.65614 5.43444 6.44522C5.17956 7.23429 5.14704 8.07653 5.34033 8.88233C5.52188 9.62469 5.88686 10.3116 6.40295 10.8822C6.97921 11.5202 7.72659 11.9859 8.55953 12.2258C8.92185 12.3304 9.2957 12.3916 9.67296 12.408C9.71817 12.41 9.76095 12.4287 9.79283 12.4603L11.141 13.7762Z" fill="#FACF5A"/>
<path d="M9.502 10.108C9.196 10.108 8.911 10.054 8.647 9.946C8.389 9.838 8.161 9.688 7.963 9.496C7.771 9.304 7.621 9.076 7.513 8.812C7.405 8.548 7.351 8.257 7.351 7.939C7.351 7.633 7.405 7.345 7.513 7.075C7.621 6.805 7.771 6.571 7.963 6.373C8.161 6.169 8.389 6.01 8.647 5.896C8.911 5.776 9.199 5.716 9.511 5.716C9.895 5.716 10.231 5.788 10.519 5.932C10.807 6.076 11.035 6.274 11.203 6.526L10.636 7.147L10.582 7.21L10.51 7.156C10.51 7.108 10.504 7.06 10.492 7.012C10.48 6.958 10.441 6.895 10.375 6.823C10.261 6.709 10.135 6.634 9.997 6.598C9.859 6.556 9.7 6.535 9.52 6.535C9.37 6.535 9.226 6.568 9.088 6.634C8.956 6.694 8.836 6.784 8.728 6.904C8.62 7.018 8.536 7.162 8.476 7.336C8.416 7.51 8.386 7.711 8.386 7.939C8.386 8.143 8.416 8.329 8.476 8.497C8.542 8.659 8.626 8.8 8.728 8.92C8.836 9.034 8.959 9.124 9.097 9.19C9.241 9.25 9.391 9.28 9.547 9.28C9.673 9.28 9.796 9.262 9.916 9.226C10.036 9.19 10.153 9.136 10.267 9.064C10.387 8.986 10.498 8.884 10.6 8.758L11.167 9.406C10.945 9.652 10.687 9.832 10.393 9.946C10.099 10.054 9.802 10.108 9.502 10.108Z" fill="#FACF5A"/>
</svg>
