<svg width="16" height="16" viewBox="0 0 16 16" fill="none" xmlns="http://www.w3.org/2000/svg">
<path d="M2.01897 11.3443C1.97365 11.3568 1.9258 11.3554 1.8812 11.3404C1.83659 11.3253 1.79714 11.2972 1.76757 11.2595C1.738 11.2217 1.71959 11.1759 1.71456 11.1276C1.70952 11.0792 1.71807 11.0304 1.73917 10.9869L2.81325 8.77666C2.83821 8.72555 2.85135 8.66911 2.85161 8.61182C2.85186 8.55453 2.83924 8.49796 2.81473 8.44661C2.24036 7.25739 2.11717 5.88796 2.46955 4.60909C3.22346 1.85622 6.01206 0.197263 8.68541 0.909192L8.7353 0.923057C9.48556 1.119 10.1742 1.51286 10.7343 2.06635C10.7905 2.12162 10.8629 2.15594 10.94 2.1639C11.0171 2.17186 11.0945 2.153 11.1601 2.11031L11.1661 2.10634C11.2104 2.07733 11.2478 2.03838 11.2756 1.99236C11.3034 1.94635 11.3208 1.89446 11.3267 1.8405C11.3326 1.78655 11.3267 1.73191 11.3095 1.68063C11.2923 1.62935 11.2642 1.58273 11.2273 1.54422C11.1143 1.42567 10.9952 1.31349 10.8705 1.20816C10.5402 0.92833 10.1739 0.697525 9.78222 0.522385C8.94228 0.134311 8.02561 -0.0418384 7.10736 0.00837335C6.1891 0.0585852 5.29538 0.333729 4.49945 0.811255C3.16476 1.60554 2.19979 2.88133 1.78171 4.40594C1.40488 5.77437 1.50522 7.23675 2.0651 8.53605C2.07455 8.55774 2.07921 8.58134 2.07873 8.60513C2.07825 8.62892 2.07266 8.6523 2.06235 8.67356L1.10143 10.6538C1.03789 10.7856 1.00333 10.9304 1.00023 11.0777C0.997127 11.2251 1.02556 11.3713 1.08349 11.5059C1.14142 11.6404 1.2274 11.76 1.33524 11.856C1.44307 11.9519 1.57009 12.0219 1.70714 12.0609C1.86879 12.1052 2.0388 12.1048 2.20028 12.0599L4.55405 11.4067C4.77278 11.3461 4.89313 11.114 4.80791 10.8963C4.7743 10.8103 4.71142 10.7401 4.6312 10.6989C4.55098 10.6578 4.45899 10.6486 4.37268 10.6731L2.01897 11.3443Z" fill="#074A4E"/>
<path d="M10.3296 10.7135C9.69419 10.7135 9.21651 10.4854 8.89657 10.0292C8.58108 9.57301 8.42333 8.98086 8.42333 8.25277C8.42333 7.52468 8.58108 6.93253 8.89657 6.47633C9.21651 6.02012 9.69419 5.79201 10.3296 5.79201C10.7473 5.79201 11.1272 5.90031 11.4694 6.11689L11.2828 6.58001C10.9895 6.39107 10.6718 6.29661 10.3296 6.29661C9.87194 6.29661 9.52756 6.47863 9.2965 6.84267C9.06987 7.20211 8.95656 7.67214 8.95656 8.25277C8.95656 8.8334 9.06987 9.30574 9.2965 9.66978C9.52756 10.0292 9.87194 10.2089 10.3296 10.2089C10.7073 10.2089 11.0473 10.1122 11.3494 9.91862L11.5827 10.3472C11.2006 10.5914 10.7829 10.7135 10.3296 10.7135Z" fill="#074A4E"/>
<path d="M11.6644 15.7248C11.7774 15.8422 11.9182 15.9267 12.0726 15.9696C12.2037 16.0053 12.3409 16.0096 12.4741 15.9837C12.6072 15.9578 12.7332 15.9015 12.8428 15.819C12.9525 15.7365 13.0431 15.6298 13.1082 15.5066C13.1732 15.3834 13.2111 15.2467 13.2191 15.1064L13.331 13.0832C13.3325 13.0583 13.3393 13.034 13.3509 13.012C13.3624 12.9901 13.3786 12.9711 13.3981 12.9564C14.0684 12.4476 14.6157 11.7875 15 11.0285H14.1765C13.8229 11.6073 13.3529 12.1076 12.7921 12.4916C12.7457 12.5234 12.7072 12.566 12.6794 12.6159C12.6517 12.6659 12.6356 12.7219 12.6325 12.7795L12.5059 15.0654C12.5037 15.1049 12.4906 15.1429 12.4681 15.1749C12.4456 15.2069 12.4147 15.2314 12.3791 15.2456C12.3434 15.2598 12.3046 15.2631 12.2673 15.2549C12.2299 15.2468 12.1956 15.2277 12.1685 15.1999L10.4345 13.4146C10.3677 13.3459 10.2776 13.3073 10.1835 13.3071C9.73323 13.3061 9.28491 13.2386 8.85289 13.107C8.00964 12.8506 7.25302 12.3532 6.66957 11.6718C5.57824 10.3996 5.19543 8.67163 5.64593 7.0492C6.36038 4.47577 8.96717 2.9682 11.455 3.68761C11.6452 3.74285 11.832 3.81029 12.0142 3.88953C12.5684 4.13108 13.0585 4.47551 13.4705 4.89385H14.4377C14.4321 4.88645 14.4263 4.87906 14.4206 4.87168C13.8042 4.07814 12.992 3.47271 12.0702 3.11978C11.1485 2.76685 10.1517 2.67963 9.18596 2.86739C8.22021 3.05515 7.3216 3.51088 6.58572 4.18609C5.84983 4.86129 5.30419 5.73073 5.00684 6.70192C4.70949 7.67311 4.67155 8.70972 4.89705 9.70149C5.10886 10.6152 5.53467 11.4606 6.13677 12.1629C6.80908 12.9482 7.68103 13.5213 8.65279 13.8166C9.07549 13.9454 9.51165 14.0207 9.95178 14.0408C10.0045 14.0434 10.0544 14.0664 10.0916 14.1053L11.6644 15.7248Z" fill="#074A4E"/>
</svg>
