<svg width="769" height="402" viewBox="0 0 769 402" fill="none" xmlns="http://www.w3.org/2000/svg">
<path d="M50.2648 294.16C49.1768 294.449 48.0283 294.418 46.9576 294.07C45.8869 293.722 44.9397 293.071 44.23 292.197C43.5203 291.323 43.0783 290.263 42.9574 289.143C42.8365 288.024 43.0416 286.894 43.5483 285.888L69.3313 234.727C69.9306 233.544 70.2458 232.237 70.252 230.911C70.2582 229.585 69.9551 228.275 69.3669 227.087C55.5791 199.56 52.6222 167.861 61.0808 138.258C79.1784 74.5368 146.118 36.1365 210.291 52.6158L211.489 52.9367C229.498 57.4723 246.029 66.5889 259.474 79.4009C260.824 80.6803 262.561 81.4746 264.411 81.6588C266.262 81.843 268.121 81.4067 269.696 80.4184L269.839 80.3265C270.902 79.6549 271.8 78.7533 272.467 77.6883C273.134 76.6233 273.554 75.422 273.695 74.1731C273.836 72.9242 273.695 71.6596 273.282 70.4726C272.869 69.2855 272.194 68.2064 271.309 67.3148C268.595 64.5708 265.736 61.9741 262.744 59.5361C254.814 53.0587 246.022 47.7162 236.62 43.6622C216.457 34.6793 194.453 30.6019 172.41 31.7642C150.368 32.9265 128.914 39.2953 109.808 50.3488C77.7693 68.7344 54.6054 98.2654 44.5695 133.556C35.5237 165.232 37.9324 199.082 51.3722 229.157C51.599 229.659 51.7107 230.205 51.6993 230.756C51.6879 231.307 51.5536 231.848 51.3062 232.34L28.2394 278.177C26.7143 281.229 25.8846 284.58 25.8102 287.991C25.7357 291.401 26.4183 294.785 27.8089 297.9C29.1994 301.015 31.2633 303.783 33.8519 306.004C36.4406 308.226 39.4896 309.846 42.7794 310.748C46.6598 311.773 50.7408 311.765 54.6172 310.725L111.119 295.605C116.369 294.202 119.258 288.829 117.213 283.791C116.406 281.8 114.897 280.174 112.971 279.222C111.045 278.27 108.837 278.057 106.765 278.625L50.2648 294.16Z" fill="white"/>
<path d="M234.568 244.242C229.96 248.21 224.584 250.194 218.44 250.194C212.36 250.194 207.304 248.146 203.272 244.05C199.304 239.954 197.32 234.002 197.32 226.194C197.32 218.322 199.304 211.922 203.272 206.994C207.304 202.002 212.872 199.506 219.976 199.506C224.392 199.506 228.488 200.658 232.264 202.962L230.44 208.818C227.048 206.962 223.624 206.034 220.168 206.034C215.432 206.034 211.656 207.826 208.84 211.41C206.024 214.994 204.616 219.794 204.616 225.81C204.616 231.762 205.896 236.242 208.456 239.25C211.08 242.194 214.408 243.666 218.44 243.666C223.56 243.666 227.976 242.13 231.688 239.058L234.568 244.242ZM245.924 243.186C242.404 238.45 240.644 232.338 240.644 224.85C240.644 217.362 242.404 211.282 245.924 206.61C249.444 201.874 254.692 199.506 261.668 199.506C268.708 199.506 274.02 201.874 277.604 206.61C281.188 211.282 282.98 217.362 282.98 224.85C282.98 232.338 281.188 238.45 277.604 243.186C274.02 247.858 268.708 250.194 261.668 250.194C254.692 250.194 249.444 247.858 245.924 243.186ZM251.396 211.314C249.092 214.77 247.94 219.282 247.94 224.85C247.94 230.418 249.092 234.962 251.396 238.482C253.7 241.938 257.156 243.666 261.764 243.666C266.372 243.666 269.828 241.938 272.132 238.482C274.5 234.962 275.684 230.418 275.684 224.85C275.684 219.282 274.5 214.77 272.132 211.314C269.828 207.794 266.372 206.034 261.764 206.034C257.156 206.034 253.7 207.794 251.396 211.314ZM318.501 199.506C326.181 199.506 330.981 203.506 332.901 211.506C334.757 207.666 337.125 204.722 340.005 202.674C342.949 200.562 345.957 199.506 349.029 199.506C353.957 199.506 357.733 201.202 360.357 204.594C362.981 207.922 364.293 212.946 364.293 219.666V248.85H356.997V219.666C356.997 210.578 353.957 206.034 347.877 206.034C344.357 206.034 341.157 207.954 338.277 211.794C335.461 215.634 333.957 220.914 333.765 227.634V248.85H326.469V219.666C326.469 210.578 323.429 206.034 317.349 206.034C313.829 206.034 310.629 207.954 307.749 211.794C304.933 215.634 303.429 220.914 303.237 227.634V248.85H295.941V210.45L294.981 200.85L301.317 200.37L303.141 210.066C305.061 206.674 307.397 204.082 310.149 202.29C312.901 200.434 315.685 199.506 318.501 199.506ZM402.22 199.506C409.9 199.506 414.7 203.506 416.62 211.506C418.476 207.666 420.844 204.722 423.724 202.674C426.668 200.562 429.676 199.506 432.748 199.506C437.676 199.506 441.452 201.202 444.076 204.594C446.7 207.922 448.012 212.946 448.012 219.666V248.85H440.716V219.666C440.716 210.578 437.676 206.034 431.596 206.034C428.076 206.034 424.876 207.954 421.996 211.794C419.18 215.634 417.676 220.914 417.484 227.634V248.85H410.188V219.666C410.188 210.578 407.148 206.034 401.068 206.034C397.548 206.034 394.348 207.954 391.468 211.794C388.652 215.634 387.148 220.914 386.956 227.634V248.85H379.66V210.45L378.7 200.85L385.036 200.37L386.86 210.066C388.78 206.674 391.116 204.082 393.868 202.29C396.62 200.434 399.404 199.506 402.22 199.506ZM462.419 200.85H469.715V230.034C469.715 239.122 472.947 243.666 479.411 243.666C483.123 243.666 486.483 241.778 489.491 238.002C492.563 234.162 494.195 228.882 494.387 222.162V200.85H501.683V239.25L502.643 248.85L496.307 249.33L494.387 239.442C492.467 242.898 490.035 245.554 487.091 247.41C484.147 249.266 481.171 250.194 478.163 250.194C467.667 250.194 462.419 243.474 462.419 230.034V200.85ZM541.555 199.506C552.051 199.506 557.299 206.226 557.299 219.666V248.85H550.003V219.666C550.003 210.578 546.771 206.034 540.307 206.034C536.595 206.034 533.203 207.954 530.131 211.794C527.123 215.634 525.523 220.914 525.331 227.634V248.85H518.035V210.45L517.075 200.85L523.411 200.37L525.235 210.258C527.219 206.802 529.683 204.146 532.627 202.29C535.571 200.434 538.547 199.506 541.555 199.506ZM573.363 190.386C572.595 189.49 572.211 188.37 572.211 187.026C572.211 185.682 572.595 184.594 573.363 183.762C574.131 182.866 575.251 182.418 576.723 182.418C578.195 182.418 579.347 182.866 580.179 183.762C581.011 184.658 581.427 185.746 581.427 187.026C581.427 188.306 581.011 189.394 580.179 190.29C579.347 191.186 578.195 191.634 576.723 191.634C575.251 191.634 574.131 191.218 573.363 190.386ZM573.171 248.85V200.85H580.467V248.85H573.171ZM607.814 248.85V190.482H589.574V183.57H633.734V190.482H615.494V248.85H607.814ZM653.011 250.194C647.507 250.194 642.995 248.114 639.475 243.954C635.955 239.794 634.195 233.81 634.195 226.002C634.195 218.13 636.403 211.762 640.819 206.898C645.299 201.97 650.835 199.506 657.427 199.506C664.083 199.506 670.067 201.362 675.379 205.074V239.25L676.339 248.85L670.003 249.33L668.371 240.69C664.787 247.026 659.667 250.194 653.011 250.194ZM641.491 225.81C641.491 231.57 642.707 235.986 645.139 239.058C647.571 242.13 650.675 243.666 654.451 243.666C658.291 243.666 661.523 241.778 664.147 238.002C666.771 234.162 668.083 228.754 668.083 221.778V208.434C664.883 206.834 661.459 206.034 657.811 206.034C653.075 206.034 649.171 207.89 646.099 211.602C643.027 215.25 641.491 219.986 641.491 225.81ZM691.263 181.65H698.559V238.29C698.559 241.81 699.999 243.57 702.879 243.57C704.735 243.57 706.559 242.93 708.351 241.65L711.231 246.834C707.711 249.074 704.383 250.194 701.247 250.194C698.111 250.194 695.647 249.33 693.855 247.602C692.127 245.874 691.263 242.77 691.263 238.29V181.65ZM754.113 211.89C754.113 218.418 750.241 223.602 742.497 227.442L755.169 248.85H746.721L735.585 229.938C732.705 230.77 729.249 231.378 725.217 231.762V248.85H717.921V181.65H725.217V208.434C729.057 202.482 734.113 199.506 740.385 199.506C744.993 199.506 748.417 200.658 750.657 202.962C752.961 205.266 754.113 208.242 754.113 211.89ZM740.193 206.034C735.969 206.034 732.417 207.858 729.537 211.506C726.657 215.09 725.217 218.994 725.217 223.218V225.33C732.321 224.754 737.697 223.25 741.345 220.818C744.993 218.322 746.817 215.506 746.817 212.37C746.817 210.514 746.273 209.01 745.185 207.858C744.097 206.642 742.433 206.034 740.193 206.034Z" fill="white"/>
<path fill-rule="evenodd" clip-rule="evenodd" d="M281.802 395.558C284.514 398.275 287.893 400.23 291.601 401.225L291.605 401.208C294.751 402.033 298.04 402.15 301.237 401.55C304.433 400.95 307.456 399.649 310.089 397.739C312.721 395.829 314.896 393.359 316.458 390.506C318.02 387.654 318.93 384.49 319.121 381.244L321.808 334.412C321.843 333.835 322.006 333.272 322.284 332.765C322.562 332.257 322.949 331.817 323.417 331.477C339.508 319.699 352.645 304.42 361.871 286.85H342.104C333.615 300.249 322.332 311.829 308.872 320.717C307.758 321.453 306.832 322.439 306.167 323.595C305.501 324.752 305.115 326.049 305.039 327.381L302.001 380.295C301.948 381.209 301.633 382.089 301.093 382.829C300.553 383.569 299.811 384.137 298.956 384.466C298.101 384.794 297.17 384.869 296.273 384.681C295.377 384.494 294.553 384.051 293.902 383.408L252.276 342.083C250.675 340.492 248.51 339.598 246.253 339.593L246.242 339.59C235.433 339.568 224.682 338.009 214.311 334.963C194.069 329.027 175.907 317.514 161.901 301.74C135.704 272.294 126.515 232.295 137.329 194.74C154.479 135.172 217.055 100.276 276.774 116.929C281.341 118.207 285.825 119.768 290.199 121.603C303.502 127.194 315.266 135.167 325.156 144.85H348.374C348.238 144.679 348.101 144.508 347.963 144.337C333.167 125.968 313.669 111.954 291.542 103.785C269.416 95.6156 245.489 93.5966 222.307 97.9428C199.124 102.289 177.553 112.838 159.888 128.467C142.224 144.096 129.126 164.222 121.988 186.702C114.85 209.182 113.939 233.177 119.352 256.134C124.437 277.284 134.658 296.853 149.112 313.109C165.25 331.286 186.181 344.552 209.508 351.388C219.655 354.369 230.125 356.111 240.69 356.578C241.956 356.637 243.154 357.169 244.047 358.069L281.802 395.558Z" fill="white"/>
</svg>
