<svg width="769" height="403" viewBox="0 0 769 403" fill="none" xmlns="http://www.w3.org/2000/svg">
<path d="M50.2648 294.31C49.1768 294.599 48.0283 294.568 46.9576 294.22C45.8869 293.872 44.9397 293.221 44.23 292.347C43.5203 291.473 43.0783 290.413 42.9574 289.293C42.8365 288.174 43.0416 287.044 43.5483 286.038L69.3313 234.877C69.9306 233.694 70.2458 232.387 70.252 231.061C70.2582 229.735 69.9551 228.425 69.3669 227.237C55.5791 199.71 52.6222 168.011 61.0808 138.408C79.1784 74.6869 146.118 36.2865 210.291 52.7658L211.489 53.0867C229.498 57.6223 246.029 66.739 259.474 79.5509C260.824 80.8303 262.561 81.6247 264.411 81.8089C266.262 81.9931 268.121 81.5567 269.696 80.5684L269.839 80.4766C270.902 79.8049 271.8 78.9033 272.467 77.8383C273.134 76.7733 273.554 75.572 273.695 74.3231C273.836 73.0742 273.695 71.8096 273.282 70.6226C272.869 69.4356 272.194 68.3564 271.309 67.4649C268.595 64.7208 265.736 62.1241 262.744 59.6861C254.814 53.2088 246.022 47.8662 236.62 43.8122C216.457 34.8293 194.453 30.752 172.41 31.9142C150.368 33.0765 128.914 39.4453 109.808 50.4988C77.7693 68.8844 54.6054 98.4154 44.5695 133.706C35.5237 165.382 37.9324 199.232 51.3722 229.307C51.599 229.809 51.7107 230.355 51.6993 230.906C51.6879 231.457 51.5536 231.998 51.3062 232.49L28.2394 278.328C26.7143 281.379 25.8846 284.73 25.8102 288.141C25.7357 291.551 26.4183 294.935 27.8089 298.05C29.1994 301.165 31.2633 303.933 33.8519 306.154C36.4406 308.376 39.4896 309.996 42.7794 310.898C46.6598 311.923 50.7408 311.915 54.6172 310.875L111.119 295.755C116.369 294.352 119.258 288.979 117.213 283.941C116.406 281.95 114.897 280.324 112.971 279.372C111.045 278.42 108.837 278.207 106.765 278.775L50.2648 294.31Z" fill="#FACF5A"/>
<path d="M234.568 244.392C229.96 248.36 224.584 250.344 218.44 250.344C212.36 250.344 207.304 248.296 203.272 244.2C199.304 240.104 197.32 234.152 197.32 226.344C197.32 218.472 199.304 212.072 203.272 207.144C207.304 202.152 212.872 199.656 219.976 199.656C224.392 199.656 228.488 200.808 232.264 203.112L230.44 208.968C227.048 207.112 223.624 206.184 220.168 206.184C215.432 206.184 211.656 207.976 208.84 211.56C206.024 215.144 204.616 219.944 204.616 225.96C204.616 231.912 205.896 236.392 208.456 239.4C211.08 242.344 214.408 243.816 218.44 243.816C223.56 243.816 227.976 242.28 231.688 239.208L234.568 244.392ZM245.924 243.336C242.404 238.6 240.644 232.488 240.644 225C240.644 217.512 242.404 211.432 245.924 206.76C249.444 202.024 254.692 199.656 261.668 199.656C268.708 199.656 274.02 202.024 277.604 206.76C281.188 211.432 282.98 217.512 282.98 225C282.98 232.488 281.188 238.6 277.604 243.336C274.02 248.008 268.708 250.344 261.668 250.344C254.692 250.344 249.444 248.008 245.924 243.336ZM251.396 211.464C249.092 214.92 247.94 219.432 247.94 225C247.94 230.568 249.092 235.112 251.396 238.632C253.7 242.088 257.156 243.816 261.764 243.816C266.372 243.816 269.828 242.088 272.132 238.632C274.5 235.112 275.684 230.568 275.684 225C275.684 219.432 274.5 214.92 272.132 211.464C269.828 207.944 266.372 206.184 261.764 206.184C257.156 206.184 253.7 207.944 251.396 211.464ZM318.501 199.656C326.181 199.656 330.981 203.656 332.901 211.656C334.757 207.816 337.125 204.872 340.005 202.824C342.949 200.712 345.957 199.656 349.029 199.656C353.957 199.656 357.733 201.352 360.357 204.744C362.981 208.072 364.293 213.096 364.293 219.816V249H356.997V219.816C356.997 210.728 353.957 206.184 347.877 206.184C344.357 206.184 341.157 208.104 338.277 211.944C335.461 215.784 333.957 221.064 333.765 227.784V249H326.469V219.816C326.469 210.728 323.429 206.184 317.349 206.184C313.829 206.184 310.629 208.104 307.749 211.944C304.933 215.784 303.429 221.064 303.237 227.784V249H295.941V210.6L294.981 201L301.317 200.52L303.141 210.216C305.061 206.824 307.397 204.232 310.149 202.44C312.901 200.584 315.685 199.656 318.501 199.656ZM402.22 199.656C409.9 199.656 414.7 203.656 416.62 211.656C418.476 207.816 420.844 204.872 423.724 202.824C426.668 200.712 429.676 199.656 432.748 199.656C437.676 199.656 441.452 201.352 444.076 204.744C446.7 208.072 448.012 213.096 448.012 219.816V249H440.716V219.816C440.716 210.728 437.676 206.184 431.596 206.184C428.076 206.184 424.876 208.104 421.996 211.944C419.18 215.784 417.676 221.064 417.484 227.784V249H410.188V219.816C410.188 210.728 407.148 206.184 401.068 206.184C397.548 206.184 394.348 208.104 391.468 211.944C388.652 215.784 387.148 221.064 386.956 227.784V249H379.66V210.6L378.7 201L385.036 200.52L386.86 210.216C388.78 206.824 391.116 204.232 393.868 202.44C396.62 200.584 399.404 199.656 402.22 199.656ZM462.419 201H469.715V230.184C469.715 239.272 472.947 243.816 479.411 243.816C483.123 243.816 486.483 241.928 489.491 238.152C492.563 234.312 494.195 229.032 494.387 222.312V201H501.683V239.4L502.643 249L496.307 249.48L494.387 239.592C492.467 243.048 490.035 245.704 487.091 247.56C484.147 249.416 481.171 250.344 478.163 250.344C467.667 250.344 462.419 243.624 462.419 230.184V201ZM541.555 199.656C552.051 199.656 557.299 206.376 557.299 219.816V249H550.003V219.816C550.003 210.728 546.771 206.184 540.307 206.184C536.595 206.184 533.203 208.104 530.131 211.944C527.123 215.784 525.523 221.064 525.331 227.784V249H518.035V210.6L517.075 201L523.411 200.52L525.235 210.408C527.219 206.952 529.683 204.296 532.627 202.44C535.571 200.584 538.547 199.656 541.555 199.656ZM573.363 190.536C572.595 189.64 572.211 188.52 572.211 187.176C572.211 185.832 572.595 184.744 573.363 183.912C574.131 183.016 575.251 182.568 576.723 182.568C578.195 182.568 579.347 183.016 580.179 183.912C581.011 184.808 581.427 185.896 581.427 187.176C581.427 188.456 581.011 189.544 580.179 190.44C579.347 191.336 578.195 191.784 576.723 191.784C575.251 191.784 574.131 191.368 573.363 190.536ZM573.171 249V201H580.467V249H573.171ZM607.814 249V190.632H589.574V183.72H633.734V190.632H615.494V249H607.814ZM653.011 250.344C647.507 250.344 642.995 248.264 639.475 244.104C635.955 239.944 634.195 233.96 634.195 226.152C634.195 218.28 636.403 211.912 640.819 207.048C645.299 202.12 650.835 199.656 657.427 199.656C664.083 199.656 670.067 201.512 675.379 205.224V239.4L676.339 249L670.003 249.48L668.371 240.84C664.787 247.176 659.667 250.344 653.011 250.344ZM641.491 225.96C641.491 231.72 642.707 236.136 645.139 239.208C647.571 242.28 650.675 243.816 654.451 243.816C658.291 243.816 661.523 241.928 664.147 238.152C666.771 234.312 668.083 228.904 668.083 221.928V208.584C664.883 206.984 661.459 206.184 657.811 206.184C653.075 206.184 649.171 208.04 646.099 211.752C643.027 215.4 641.491 220.136 641.491 225.96ZM691.263 181.8H698.559V238.44C698.559 241.96 699.999 243.72 702.879 243.72C704.735 243.72 706.559 243.08 708.351 241.8L711.231 246.984C707.711 249.224 704.383 250.344 701.247 250.344C698.111 250.344 695.647 249.48 693.855 247.752C692.127 246.024 691.263 242.92 691.263 238.44V181.8ZM754.113 212.04C754.113 218.568 750.241 223.752 742.497 227.592L755.169 249H746.721L735.585 230.088C732.705 230.92 729.249 231.528 725.217 231.912V249H717.921V181.8H725.217V208.584C729.057 202.632 734.113 199.656 740.385 199.656C744.993 199.656 748.417 200.808 750.657 203.112C752.961 205.416 754.113 208.392 754.113 212.04ZM740.193 206.184C735.969 206.184 732.417 208.008 729.537 211.656C726.657 215.24 725.217 219.144 725.217 223.368V225.48C732.321 224.904 737.697 223.4 741.345 220.968C744.993 218.472 746.817 215.656 746.817 212.52C746.817 210.664 746.273 209.16 745.185 208.008C744.097 206.792 742.433 206.184 740.193 206.184Z" fill="#49BEB7"/>
<path fill-rule="evenodd" clip-rule="evenodd" d="M281.802 395.708C284.514 398.425 287.893 400.38 291.601 401.375L291.605 401.358C294.751 402.183 298.04 402.3 301.237 401.7C304.433 401.1 307.456 399.799 310.089 397.889C312.721 395.979 314.896 393.509 316.458 390.656C318.02 387.804 318.93 384.64 319.121 381.394L321.808 334.562C321.843 333.985 322.006 333.422 322.284 332.915C322.562 332.407 322.949 331.967 323.417 331.627C339.508 319.849 352.645 304.57 361.871 287H342.104C333.615 300.399 322.332 311.979 308.872 320.867C307.758 321.603 306.832 322.589 306.167 323.745C305.501 324.902 305.115 326.199 305.039 327.531L302.001 380.445C301.948 381.359 301.633 382.239 301.093 382.979C300.553 383.719 299.811 384.287 298.956 384.616C298.101 384.944 297.17 385.019 296.273 384.832C295.377 384.644 294.553 384.201 293.902 383.558L252.276 342.233C250.675 340.642 248.51 339.748 246.253 339.743L246.242 339.74C235.433 339.718 224.682 338.16 214.311 335.113C194.069 329.177 175.907 317.664 161.901 301.89C135.704 272.444 126.515 232.445 137.329 194.89C154.479 135.322 217.055 100.426 276.774 117.079C281.341 118.357 285.825 119.918 290.199 121.753C303.502 127.344 315.266 135.317 325.156 145H348.374C348.238 144.829 348.101 144.658 347.963 144.487C333.167 126.119 313.669 112.104 291.542 103.935C269.416 95.7656 245.489 93.7467 222.307 98.0929C199.124 102.439 177.553 112.988 159.888 128.617C142.224 144.246 129.126 164.372 121.988 186.852C114.85 209.332 113.939 233.327 119.352 256.284C124.437 277.434 134.658 297.003 149.112 313.259C165.25 331.436 186.181 344.702 209.508 351.538C219.655 354.519 230.125 356.261 240.69 356.728C241.956 356.787 243.154 357.319 244.047 358.219L281.802 395.708Z" fill="#FACF5A"/>
</svg>
