<svg width="32" height="32" viewBox="0 0 32 32" fill="none" xmlns="http://www.w3.org/2000/svg">
<path fill-rule="evenodd" clip-rule="evenodd" d="M24.2502 20.5C23.572 20.5 22.6136 20.5938 21.616 20.7304C21.1499 20.7942 20.7945 21.1496 20.7306 21.6157C20.594 22.6134 20.5002 23.5717 20.5002 24.25C20.5002 24.9283 20.594 25.8866 20.7306 26.8843C20.7945 27.3504 21.1499 27.7058 21.616 27.7696C22.6136 27.9062 23.572 28 24.2502 28C24.9285 28 25.8869 27.9062 26.8845 27.7696C27.3506 27.7058 27.706 27.3504 27.7698 26.8843C27.9065 25.8866 28.0002 24.9283 28.0002 24.25C28.0002 23.5717 27.9065 22.6134 27.7698 21.6157C27.706 21.1496 27.3506 20.7942 26.8845 20.7304C25.8869 20.5938 24.9285 20.5 24.2502 20.5ZM21.2089 17.7581C19.409 18.0046 18.0049 19.4088 17.7584 21.2087C17.617 22.241 17.5002 23.3622 17.5002 24.25C17.5002 25.1378 17.617 26.259 17.7584 27.2913C18.0049 29.0912 19.409 30.4954 21.2089 30.7419C22.2412 30.8832 23.3625 31 24.2502 31C25.138 31 26.2593 30.8832 27.2916 30.7419C29.0914 30.4954 30.4956 29.0912 30.7421 27.2913C30.8835 26.259 31.0002 25.1378 31.0002 24.25C31.0002 23.3622 30.8835 22.241 30.7421 21.2087C30.4956 19.4088 29.0914 18.0046 27.2916 17.7581C26.2593 17.6168 25.138 17.5 24.2502 17.5C23.3625 17.5 22.2412 17.6168 21.2089 17.7581Z" fill="white"/>
<path fill-rule="evenodd" clip-rule="evenodd" d="M7.75 20.5C7.07173 20.5 6.11339 20.5938 5.11572 20.7304C4.64962 20.7942 4.29422 21.1496 4.23039 21.6157C4.09376 22.6134 4 23.5717 4 24.25C4 24.9283 4.09376 25.8866 4.23039 26.8843C4.29422 27.3504 4.64962 27.7058 5.11572 27.7696C6.11339 27.9062 7.07173 28 7.75 28C8.42827 28 9.38661 27.9062 10.3843 27.7696C10.8504 27.7058 11.2058 27.3504 11.2696 26.8843C11.4062 25.8866 11.5 24.9283 11.5 24.25C11.5 23.5717 11.4062 22.6134 11.2696 21.6157C11.2058 21.1496 10.8504 20.7942 10.3843 20.7304C9.38661 20.5938 8.42827 20.5 7.75 20.5ZM4.70865 17.7581C2.9088 18.0046 1.50463 19.4088 1.25814 21.2087C1.11676 22.241 1 23.3622 1 24.25C1 25.1378 1.11676 26.259 1.25814 27.2913C1.50463 29.0912 2.9088 30.4954 4.70865 30.7419C5.74097 30.8832 6.86224 31 7.75 31C8.63776 31 9.75903 30.8832 10.7913 30.7419C12.5912 30.4954 13.9954 29.0912 14.2419 27.2913C14.3832 26.259 14.5 25.1378 14.5 24.25C14.5 23.3622 14.3832 22.241 14.2419 21.2087C13.9954 19.4088 12.5912 18.0046 10.7913 17.7581C9.75903 17.6168 8.63776 17.5 7.75 17.5C6.86224 17.5 5.74097 17.6168 4.70865 17.7581Z" fill="white"/>
<path fill-rule="evenodd" clip-rule="evenodd" d="M24.2502 4C23.572 4 22.6136 4.09376 21.616 4.23039C21.1499 4.29422 20.7945 4.64962 20.7306 5.11572C20.594 6.11339 20.5002 7.07173 20.5002 7.75C20.5002 8.42827 20.594 9.38661 20.7306 10.3843C20.7945 10.8504 21.1499 11.2058 21.616 11.2696C22.6136 11.4062 23.572 11.5 24.2502 11.5C24.9285 11.5 25.8869 11.4062 26.8845 11.2696C27.3506 11.2058 27.706 10.8504 27.7698 10.3843C27.9065 9.38661 28.0002 8.42827 28.0002 7.75C28.0002 7.07173 27.9065 6.11339 27.7698 5.11572C27.706 4.64962 27.3506 4.29422 26.8845 4.23039C25.8869 4.09376 24.9285 4 24.2502 4ZM21.2089 1.25814C19.409 1.50463 18.0049 2.9088 17.7584 4.70865C17.617 5.74097 17.5002 6.86224 17.5002 7.75C17.5002 8.63776 17.617 9.75903 17.7584 10.7913C18.0049 12.5912 19.409 13.9954 21.2089 14.2419C22.2412 14.3832 23.3625 14.5 24.2502 14.5C25.138 14.5 26.2593 14.3832 27.2916 14.2419C29.0914 13.9954 30.4956 12.5912 30.7421 10.7913C30.8835 9.75903 31.0002 8.63776 31.0002 7.75C31.0002 6.86224 30.8835 5.74097 30.7421 4.70865C30.4956 2.9088 29.0914 1.50463 27.2916 1.25814C26.2593 1.11676 25.138 1 24.2502 1C23.3625 1 22.2412 1.11676 21.2089 1.25814Z" fill="white"/>
<path fill-rule="evenodd" clip-rule="evenodd" d="M7.75 4C7.07173 4 6.11339 4.09376 5.11572 4.23039C4.64962 4.29422 4.29422 4.64962 4.23039 5.11572C4.09376 6.11339 4 7.07173 4 7.75C4 8.42827 4.09376 9.38661 4.23039 10.3843C4.29422 10.8504 4.64962 11.2058 5.11572 11.2696C6.11339 11.4062 7.07173 11.5 7.75 11.5C8.42827 11.5 9.38661 11.4062 10.3843 11.2696C10.8504 11.2058 11.2058 10.8504 11.2696 10.3843C11.4062 9.38661 11.5 8.42827 11.5 7.75C11.5 7.07173 11.4062 6.11339 11.2696 5.11572C11.2058 4.64962 10.8504 4.29422 10.3843 4.23039C9.38661 4.09376 8.42827 4 7.75 4ZM4.70865 1.25814C2.9088 1.50463 1.50463 2.9088 1.25814 4.70865C1.11676 5.74097 1 6.86224 1 7.75C1 8.63776 1.11676 9.75903 1.25814 10.7913C1.50463 12.5912 2.9088 13.9954 4.70865 14.2419C5.74097 14.3832 6.86224 14.5 7.75 14.5C8.63776 14.5 9.75903 14.3832 10.7913 14.2419C12.5912 13.9954 13.9954 12.5912 14.2419 10.7913C14.3832 9.75903 14.5 8.63776 14.5 7.75C14.5 6.86224 14.3832 5.74097 14.2419 4.70865C13.9954 2.9088 12.5912 1.50463 10.7913 1.25814C9.75903 1.11676 8.63776 1 7.75 1C6.86224 1 5.74097 1.11676 4.70865 1.25814Z" fill="white"/>
</svg>
