<svg width="32" height="32" viewBox="0 0 32 32" fill="none" xmlns="http://www.w3.org/2000/svg">
<g clip-path="url(#clip0_39_14)">
<path d="M22.5889 21.909C21.8109 21.909 21.1778 22.5588 21.1778 23.3572V26.6207C21.1778 26.8872 20.9661 27.1034 20.7074 27.1034H9.29257C9.03387 27.1034 8.8222 26.8872 8.8222 26.6207V5.37931C8.8222 5.11283 9.03387 4.89655 9.29257 4.89655H20.7074C20.9661 4.89655 21.1778 5.11283 21.1778 5.37931V8.64276C21.1778 9.44124 21.8109 10.091 22.5889 10.091C23.3669 10.091 24 9.44124 24 8.64276V5.37931C24 3.51586 22.523 2 20.7074 2H9.29257C7.47695 2 6 3.51586 6 5.37931V26.6207C6 28.4841 7.47695 30 9.29257 30H20.7074C22.523 30 24 28.4841 24 26.6207V23.3572C24 22.5588 23.3669 21.909 22.5889 21.909Z" fill="white"/>
<path d="M13.1102 16.5393C13.1495 16.6336 13.2007 16.7038 13.2627 16.7952C13.2863 16.8375 13.3257 16.9107 13.3955 16.9828L16.7712 20.539C17.0388 20.8219 17.4048 20.9855 17.7984 20.9999C18.1663 21.0038 18.5678 20.8787 18.858 20.615C19.4533 20.0733 19.4877 19.1583 18.9338 18.5752L17.8594 17.4437L24.5242 17.4437C25.3378 17.4437 26 16.7962 26 16.0004C26 15.2047 25.3378 14.5572 24.5242 14.5572L17.8594 14.5572L18.9338 13.4257C19.4867 12.8426 19.4533 11.9275 18.857 11.3858C18.5845 11.1366 18.2264 11 17.8525 11C17.4422 11 17.0487 11.1684 16.7712 11.4609L13.3926 15.019C13.3257 15.0902 13.2863 15.1624 13.2342 15.2499C13.1997 15.2961 13.1486 15.3673 13.1092 15.4626C13.0492 15.6069 13.0148 15.757 13.0059 15.91L13 15.9292L13.0059 16.0918C13.0167 16.2439 13.0512 16.393 13.1092 16.5383L13.1102 16.5393Z" fill="white"/>
</g>
<defs>
<clipPath id="clip0_39_14">
<rect width="32" height="32" fill="white"/>
</clipPath>
</defs>
</svg>
