<svg width="32" height="32" viewBox="0 0 32 32" fill="none" xmlns="http://www.w3.org/2000/svg">
<g clip-path="url(#clip0_39_25)">
<path d="M22.5889 21.909C21.8109 21.909 21.1778 22.5588 21.1778 23.3572V26.6207C21.1778 26.8872 20.9661 27.1034 20.7074 27.1034H9.29257C9.03387 27.1034 8.8222 26.8872 8.8222 26.6207V5.37931C8.8222 5.11283 9.03387 4.89655 9.29257 4.89655H20.7074C20.9661 4.89655 21.1778 5.11283 21.1778 5.37931V8.64276C21.1778 9.44124 21.8109 10.091 22.5889 10.091C23.3669 10.091 24 9.44124 24 8.64276V5.37931C24 3.51586 22.523 2 20.7074 2H9.29257C7.47695 2 6 3.51586 6 5.37931V26.6207C6 28.4841 7.47695 30 9.29257 30H20.7074C22.523 30 24 28.4841 24 26.6207V23.3572C24 22.5588 23.3669 21.909 22.5889 21.909Z" fill="white"/>
<path d="M25.8983 15.4607C25.862 15.3664 25.8147 15.2962 25.7575 15.2048C25.7357 15.1625 25.6994 15.0893 25.6349 15.0172L22.5189 11.461C22.2719 11.1781 21.934 11.0145 21.5707 11.0001C21.2311 10.9962 20.8605 11.1213 20.5926 11.385C20.0431 11.9267 20.0114 12.8417 20.5227 13.4248L21.5144 14.5563H15.3623C14.6112 14.5563 14 15.2038 14 15.9996C14 16.7953 14.6112 17.4428 15.3623 17.4428H21.5144L20.5227 18.5744C20.0123 19.1574 20.0431 20.0725 20.5935 20.6142C20.8451 20.8634 21.1757 21 21.5208 21C21.8995 21 22.2628 20.8316 22.5189 20.5391L25.6376 16.981C25.6994 16.9098 25.7357 16.8376 25.7839 16.7501C25.8156 16.7039 25.8629 16.6327 25.8992 16.5374C25.9546 16.3931 25.9864 16.243 25.9946 16.09L26 16.0708L25.9946 15.9082C25.9846 15.7561 25.9528 15.607 25.8992 15.4617L25.8983 15.4607Z" fill="white"/>
</g>
<defs>
<clipPath id="clip0_39_25">
<rect width="32" height="32" fill="white"/>
</clipPath>
</defs>
</svg>
